<svg xmlns="http://www.w3.org/2000/svg" xmlns:xlink="http://www.w3.org/1999/xlink" version="1.1" style="shape-rendering:geometricPrecision; text-rendering:geometricPrecision; image-rendering:optimizeQuality; fill-rule:evenodd; clip-rule:evenodd" viewBox="-0.5 -0.5 254 145">
<g><path style="opacity:1" fill="#fefefe" d="M -0.5,-0.5 C 48.8333,-0.5 98.1667,-0.5 147.5,-0.5C 147.5,-0.166667 147.5,0.166667 147.5,0.5C 138.5,0.5 129.5,0.5 120.5,0.5C 119.508,7.64761 119.175,14.9809 119.5,22.5C 104.324,22.1706 89.324,22.5039 74.5,23.5C 74.5,30.8333 74.5,38.1667 74.5,45.5C 66.8333,45.5 59.1667,45.5 51.5,45.5C 51.5,53.5 51.5,61.5 51.5,69.5C 44.8333,69.5 38.1667,69.5 31.5,69.5C 31.5,75.1667 31.5,80.8333 31.5,86.5C 25.7161,86.4408 20.7161,84.4408 16.5,80.5C 14.6798,85.0747 11.3464,87.7414 6.5,88.5C 4.82115,88.8923 3.15448,89.3923 1.5,90C 11.828,90.4998 22.1613,90.6665 32.5,90.5C 36.3686,112.875 48.7019,128.708 69.5,138C 76.981,141.283 84.6477,143.45 92.5,144.5C 61.5,144.5 30.5,144.5 -0.5,144.5C -0.5,96.1667 -0.5,47.8333 -0.5,-0.5 Z"/></g>
<g><path style="opacity:1" fill="#fefefe" d="M 147.5,-0.5 C 182.833,-0.5 218.167,-0.5 253.5,-0.5C 253.5,17.1667 253.5,34.8333 253.5,52.5C 244.685,47.9074 235.352,46.5741 225.5,48.5C 223.192,39.0101 218.192,31.1767 210.5,25C 206.984,25.1495 204.484,26.9828 203,30.5C 200.579,37.9853 199.912,45.652 201,53.5C 201.973,56.7789 203.473,59.7789 205.5,62.5C 201.339,65.5439 196.672,67.3772 191.5,68C 184.563,69.2878 177.563,69.7878 170.5,69.5C 170.5,61.5 170.5,53.5 170.5,45.5C 162.833,45.5 155.167,45.5 147.5,45.5C 147.5,30.5 147.5,15.5 147.5,0.5C 147.5,0.166667 147.5,-0.166667 147.5,-0.5 Z"/></g>
<g><path style="opacity:1" fill="#3a4f56" d="M 120.5,0.5 C 129.5,0.5 138.5,0.5 147.5,0.5C 147.5,15.5 147.5,30.5 147.5,45.5C 154.648,46.4916 161.981,46.825 169.5,46.5C 169.175,54.3516 169.508,62.0182 170.5,69.5C 177.563,69.7878 184.563,69.2878 191.5,68C 196.672,67.3772 201.339,65.5439 205.5,62.5C 203.473,59.7789 201.973,56.7789 201,53.5C 199.912,45.652 200.579,37.9853 203,30.5C 204.484,26.9828 206.984,25.1495 210.5,25C 218.192,31.1767 223.192,39.0101 225.5,48.5C 235.352,46.5741 244.685,47.9074 253.5,52.5C 253.5,54.1667 253.5,55.8333 253.5,57.5C 244.77,67.9839 233.437,73.3173 219.5,73.5C 217.774,77.9531 215.774,82.2864 213.5,86.5C 222.7,88.4981 230.867,86.4981 238,80.5C 239.469,85.133 242.636,87.7996 247.5,88.5C 235.5,89.1667 223.5,89.8333 211.5,90.5C 190.276,122.792 160.276,140.792 121.5,144.5C 111.833,144.5 102.167,144.5 92.5,144.5C 84.6477,143.45 76.981,141.283 69.5,138C 48.7019,128.708 36.3686,112.875 32.5,90.5C 23.8333,89.8333 15.1667,89.1667 6.5,88.5C 11.3464,87.7414 14.6798,85.0747 16.5,80.5C 20.7161,84.4408 25.7161,86.4408 31.5,86.5C 31.5,80.8333 31.5,75.1667 31.5,69.5C 38.1667,69.5 44.8333,69.5 51.5,69.5C 51.5,61.5 51.5,53.5 51.5,45.5C 59.1667,45.5 66.8333,45.5 74.5,45.5C 74.5,38.1667 74.5,30.8333 74.5,23.5C 89.8333,23.5 105.167,23.5 120.5,23.5C 120.5,15.8333 120.5,8.16667 120.5,0.5 Z"/></g>
<g><path style="opacity:1" fill="#a1aaad" d="M 120.5,0.5 C 120.5,8.16667 120.5,15.8333 120.5,23.5C 105.167,23.5 89.8333,23.5 74.5,23.5C 89.324,22.5039 104.324,22.1706 119.5,22.5C 119.175,14.9809 119.508,7.64761 120.5,0.5 Z"/></g>
<g><path style="opacity:1" fill="#17b3e9" d="M 221.5,54.5 C 219.552,57.6215 217.385,60.6215 215,63.5C 207.582,70.7493 200.416,78.0826 193.5,85.5C 192.078,85.7086 190.745,86.2086 189.5,87C 180.167,87.6667 170.833,87.6667 161.5,87C 156.441,86.5245 152.274,84.3579 149,80.5C 143.099,86.0225 136.099,88.3558 128,87.5C 119.724,88.2145 112.224,86.2145 105.5,81.5C 100.924,84.4532 95.9238,86.2866 90.5,87C 81.8333,87.6667 73.1667,87.6667 64.5,87C 61.3022,86.1515 58.4689,84.6515 56,82.5C 53.4125,84.1958 50.5792,85.1958 47.5,85.5C 46.2502,85.4226 45.4169,84.756 45,83.5C 44.5017,80.1832 44.335,76.8499 44.5,73.5C 92.0029,73.8321 139.336,73.4988 186.5,72.5C 194.986,71.7268 202.82,69.0601 210,64.5C 209.268,61.7012 207.934,59.0345 206,56.5C 204.494,49.5667 204.161,42.5667 205,35.5C 205.848,33.1257 207.181,31.1257 209,29.5C 217.943,35.3856 222.109,43.7189 221.5,54.5 Z"/></g>
<g><path style="opacity:1" fill="#5a6a70" d="M 147.5,45.5 C 155.167,45.5 162.833,45.5 170.5,45.5C 170.5,53.5 170.5,61.5 170.5,69.5C 169.508,62.0182 169.175,54.3516 169.5,46.5C 161.981,46.825 154.648,46.4916 147.5,45.5 Z"/></g>
<g><path style="opacity:1" fill="#15a5d6" d="M 193.5,85.5 C 200.416,78.0826 207.582,70.7493 215,63.5C 217.385,60.6215 219.552,57.6215 221.5,54.5C 228.551,51.6608 235.885,50.8275 243.5,52C 249.513,52.6169 250.68,55.1169 247,59.5C 238.561,66.6654 228.728,69.8321 217.5,69C 215.16,75.4814 211.826,81.3147 207.5,86.5C 204.305,85.5483 201.305,84.215 198.5,82.5C 196.971,83.7629 195.305,84.7629 193.5,85.5 Z"/></g>
<g><path style="opacity:1" fill="#1f98c2" d="M 186.5,72.5 C 139.336,73.4988 92.0029,73.8321 44.5,73.5C 44.335,76.8499 44.5017,80.1832 45,83.5C 45.4169,84.756 46.2502,85.4226 47.5,85.5C 43.8171,87.2499 39.8171,87.9166 35.5,87.5C 35.5,82.5 35.5,77.5 35.5,72.5C 85.8333,72.5 136.167,72.5 186.5,72.5 Z"/></g>
<g><path style="opacity:1" fill="#6e7d82" d="M 6.5,88.5 C 15.1667,89.1667 23.8333,89.8333 32.5,90.5C 22.1613,90.6665 11.828,90.4998 1.5,90C 3.15448,89.3923 4.82115,88.8923 6.5,88.5 Z"/></g>
<g><path style="opacity:1" fill="#6a797e" d="M 247.5,88.5 C 248.766,89.0899 250.099,89.5899 251.5,90C 238.171,90.4999 224.837,90.6666 211.5,90.5C 223.5,89.8333 235.5,89.1667 247.5,88.5 Z"/></g>
<g><path style="opacity:1" fill="#118ab3" d="M 46.5,90.5 C 49.0768,100.667 54.4102,109 62.5,115.5C 57.1563,115.666 51.8229,115.499 46.5,115C 41.1041,107.704 37.7708,99.5373 36.5,90.5C 39.8333,90.5 43.1667,90.5 46.5,90.5 Z"/></g>
<g><path style="opacity:1" fill="#1395c2" d="M 46.5,90.5 C 92.8333,90.5 139.167,90.5 185.5,90.5C 158.359,112.327 127.359,124.327 92.5,126.5C 91.8333,125.833 91.1667,125.167 90.5,124.5C 89.1667,121.833 87.8333,119.167 86.5,116.5C 87.209,115.596 88.209,115.263 89.5,115.5C 89.5,114.5 89.5,113.5 89.5,112.5C 80.6205,114.401 71.6205,115.401 62.5,115.5C 54.4102,109 49.0768,100.667 46.5,90.5 Z"/></g>
<g><path style="opacity:1" fill="#118ab3" d="M 185.5,90.5 C 192.508,90.3337 199.508,90.5004 206.5,91C 182.755,123.874 150.422,140.374 109.5,140.5C 102.913,137.028 97.2465,132.361 92.5,126.5C 127.359,124.327 158.359,112.327 185.5,90.5 Z"/></g>
<g><path style="opacity:1" fill="#fdfdfd" d="M 253.5,57.5 C 253.5,86.5 253.5,115.5 253.5,144.5C 209.5,144.5 165.5,144.5 121.5,144.5C 160.276,140.792 190.276,122.792 211.5,90.5C 224.837,90.6666 238.171,90.4999 251.5,90C 250.099,89.5899 248.766,89.0899 247.5,88.5C 242.636,87.7996 239.469,85.133 238,80.5C 230.867,86.4981 222.7,88.4981 213.5,86.5C 215.774,82.2864 217.774,77.9531 219.5,73.5C 233.437,73.3173 244.77,67.9839 253.5,57.5 Z"/></g>
<g><path style="opacity:1" fill="#b4d7e0" d="M 94.5,101.5 C 102.828,102.069 104.495,105.569 99.5,112C 91.0878,111.812 89.4211,108.312 94.5,101.5 Z"/></g>
<g><path style="opacity:1" fill="#3d5158" d="M 94.5,103.5 C 95.5,103.5 96.5,103.5 97.5,103.5C 97.5,104.5 97.5,105.5 97.5,106.5C 98.5,106.5 99.5,106.5 100.5,106.5C 100.22,110.225 98.2204,111.392 94.5,110C 93.232,107.837 93.232,105.67 94.5,103.5 Z"/></g>
<g><path style="opacity:1" fill="#cfe9ed" d="M 86.5,116.5 C 87.8333,119.167 89.1667,121.833 90.5,124.5C 83.7957,124.666 77.1291,123.166 70.5,120C 71.4158,119.722 72.0825,119.222 72.5,118.5C 77.2193,118.112 81.886,117.445 86.5,116.5 Z"/></g>
<g><path style="opacity:1" fill="#c2d8dc" d="M 72.5,118.5 C 72.0825,119.222 71.4158,119.722 70.5,120C 77.1291,123.166 83.7957,124.666 90.5,124.5C 91.1667,125.167 91.8333,125.833 92.5,126.5C 97.2465,132.361 102.913,137.028 109.5,140.5C 86.5453,142.684 66.8786,135.85 50.5,120C 57.8581,119.684 65.1914,119.184 72.5,118.5 Z"/></g>
</svg>