<?xml version="1.0" encoding="UTF-8"?>
<svg xmlns="http://www.w3.org/2000/svg" xmlns:xlink="http://www.w3.org/1999/xlink" width="3px" height="4px" viewBox="0 0 3 4" version="1.1">
<g id="surface1">
<path style=" stroke:none;fill-rule:nonzero;fill:rgb(3.921569%,81.176471%,51.372549%);fill-opacity:1;" d="M 0.75 4 C 1.164062 4 1.5 3.703125 1.5 3.332031 L 1.5 2.667969 L 0.75 2.667969 C 0.335938 2.667969 0 2.964844 0 3.332031 C 0 3.703125 0.335938 4 0.75 4 Z M 0.75 4 "/>
<path style=" stroke:none;fill-rule:nonzero;fill:rgb(63.529412%,34.901961%,100%);fill-opacity:1;" d="M 0 2 C 0 1.632812 0.335938 1.332031 0.75 1.332031 L 1.5 1.332031 L 1.5 2.667969 L 0.75 2.667969 C 0.335938 2.667969 0 2.367188 0 2 Z M 0 2 "/>
<path style=" stroke:none;fill-rule:nonzero;fill:rgb(94.901961%,30.588235%,11.764706%);fill-opacity:1;" d="M 0 0.667969 C 0 0.296875 0.335938 0 0.75 0 L 1.5 0 L 1.5 1.332031 L 0.75 1.332031 C 0.335938 1.332031 0 1.035156 0 0.667969 Z M 0 0.667969 "/>
<path style=" stroke:none;fill-rule:nonzero;fill:rgb(100%,44.705882%,38.431373%);fill-opacity:1;" d="M 1.5 0 L 2.25 0 C 2.664062 0 3 0.296875 3 0.667969 C 3 1.035156 2.664062 1.332031 2.25 1.332031 L 1.5 1.332031 Z M 1.5 0 "/>
<path style=" stroke:none;fill-rule:nonzero;fill:rgb(10.196078%,73.72549%,99.607843%);fill-opacity:1;" d="M 3 2 C 3 2.367188 2.664062 2.667969 2.25 2.667969 C 1.835938 2.667969 1.5 2.367188 1.5 2 C 1.5 1.632812 1.835938 1.332031 2.25 1.332031 C 2.664062 1.332031 3 1.632812 3 2 Z M 3 2 "/>
</g>
</svg>
