<?xml version="1.0" encoding="UTF-8"?>
<svg xmlns="http://www.w3.org/2000/svg" xmlns:xlink="http://www.w3.org/1999/xlink" width="27px" height="40px" viewBox="0 0 27 40" version="1.1">
<g id="surface1">
<path style=" stroke:none;fill-rule:nonzero;fill:rgb(3.921569%,81.176471%,51.372549%);fill-opacity:1;" d="M 6.75 40 C 10.476562 40 13.5 37.011719 13.5 33.332031 L 13.5 26.667969 L 6.75 26.667969 C 3.027344 26.667969 0.00390625 29.652344 0.00390625 33.332031 C 0.00390625 37.011719 3.027344 40 6.75 40 Z M 6.75 40 "/>
<path style=" stroke:none;fill-rule:nonzero;fill:rgb(63.529412%,34.901961%,100%);fill-opacity:1;" d="M 0.00390625 20 C 0.00390625 16.320312 3.027344 13.332031 6.75 13.332031 L 13.5 13.332031 L 13.5 26.667969 L 6.75 26.667969 C 3.027344 26.667969 0.00390625 23.679688 0.00390625 20 Z M 0.00390625 20 "/>
<path style=" stroke:none;fill-rule:nonzero;fill:rgb(94.901961%,30.588235%,11.764706%);fill-opacity:1;" d="M 0.00390625 6.667969 C 0.00390625 2.988281 3.027344 0 6.75 0 L 13.5 0 L 13.5 13.332031 L 6.75 13.332031 C 3.027344 13.332031 0.00390625 10.347656 0.00390625 6.667969 Z M 0.00390625 6.667969 "/>
<path style=" stroke:none;fill-rule:nonzero;fill:rgb(100%,44.705882%,38.431373%);fill-opacity:1;" d="M 13.5 0 L 20.25 0 C 23.972656 0 26.996094 2.988281 26.996094 6.667969 C 26.996094 10.347656 23.972656 13.332031 20.25 13.332031 L 13.5 13.332031 Z M 13.5 0 "/>
<path style=" stroke:none;fill-rule:nonzero;fill:rgb(10.196078%,73.72549%,99.607843%);fill-opacity:1;" d="M 26.996094 20 C 26.996094 23.679688 23.972656 26.667969 20.25 26.667969 C 16.523438 26.667969 13.5 23.679688 13.5 20 C 13.5 16.320312 16.523438 13.332031 20.25 13.332031 C 23.972656 13.332031 26.996094 16.320312 26.996094 20 Z M 26.996094 20 "/>
</g>
</svg>
