<?xml version="1.0" standalone="no"?>
<!DOCTYPE svg PUBLIC "-//W3C//DTD SVG 20010904//EN"
 "http://www.w3.org/TR/2001/REC-SVG-20010904/DTD/svg10.dtd">
<svg version="1.0" xmlns="http://www.w3.org/2000/svg"
 width="1185.000000pt" height="743.000000pt" viewBox="0 0 1185.000000 743.000000"
 preserveAspectRatio="xMidYMid meet">

<g transform="translate(0.000000,743.000000) scale(0.100000,-0.100000)"
fill="#000000" stroke="none">
<path d="M4240 7406 c-236 -43 -423 -115 -920 -356 -168 -81 -323 -155 -346
-163 -34 -13 -58 -14 -135 -7 -498 47 -1182 1 -1640 -111 -275 -66 -386 -114
-474 -203 -99 -100 -151 -219 -261 -601 -379 -1306 -522 -2805 -424 -4430 27
-452 57 -568 184 -717 93 -110 251 -217 366 -248 70 -19 160 -15 218 10 65 28
145 111 179 187 l27 58 -12 220 c-7 121 -24 315 -38 430 -44 361 -43 771 2
1009 42 218 154 461 287 618 88 105 244 212 389 268 217 84 389 52 529 -98
111 -119 183 -268 245 -509 84 -327 114 -632 120 -1213 3 -239 7 -445 9 -456
7 -32 130 -160 198 -206 105 -71 194 -106 292 -111 35 -3 41 -6 46 -32 4 -17
7 -46 8 -66 1 -41 73 -188 118 -243 72 -87 227 -176 378 -215 269 -71 633 -65
932 14 237 63 414 181 462 309 56 151 88 816 61 1280 -6 93 -8 171 -6 174 3 2
53 -8 113 -22 263 -62 511 -88 843 -88 257 0 424 10 703 42 93 11 172 20 176
20 5 0 11 -160 15 -357 l8 -356 29 -75 c46 -116 68 -152 127 -214 66 -69 128
-111 208 -139 50 -17 72 -19 152 -13 l93 6 97 -94 c117 -114 139 -127 273
-172 152 -51 300 -70 484 -63 237 10 425 58 591 153 136 77 204 161 241 295
21 77 22 289 3 1039 -7 267 -11 643 -8 835 l5 351 72 89 c121 150 249 431 327
714 78 284 113 513 121 801 11 391 -37 657 -172 950 -29 63 -67 147 -84 185
-18 39 -42 80 -53 93 l-21 22 722 0 722 0 42 -24 c56 -33 195 -78 344 -112
121 -27 121 -27 169 -9 68 26 138 95 177 174 31 64 32 70 35 222 4 173 -13
304 -46 349 -36 48 -77 62 -179 57 -109 -5 -159 -26 -398 -167 l-152 -90 -449
-6 c-442 -6 -838 3 -1193 27 l-166 12 -59 40 c-511 346 -1179 614 -1821 732
-373 68 -656 89 -1113 82 -392 -6 -623 -26 -989 -85 l-112 -18 -49 52 c-65 69
-143 119 -233 151 -91 31 -271 40 -389 19z m278 -125 c60 -11 123 -26 140 -35
51 -26 145 -139 194 -232 193 -370 338 -1137 338 -1791 l0 -171 42 -79 43 -78
7 50 c42 282 54 670 29 904 -36 340 -118 654 -245 946 -32 72 -58 137 -59 144
-1 10 19 21 61 34 35 11 62 24 62 32 0 32 525 125 880 155 168 14 552 12 723
-5 357 -34 725 -124 1060 -256 245 -97 635 -313 863 -478 55 -40 117 -85 139
-101 l40 -28 265 -7 c146 -4 329 -7 407 -8 78 0 140 -4 137 -9 -3 -4 2 -8 11
-8 9 0 14 3 12 8 -3 4 6 8 19 8 14 1 21 -2 17 -9 -4 -6 -1 -7 7 -2 14 9 80 18
80 11 0 -2 -29 -27 -64 -55 l-64 -51 -294 0 c-162 0 -297 -2 -300 -5 -9 -10
74 -203 92 -215 5 -3 20 -27 34 -54 14 -27 30 -54 35 -60 6 -7 -108 -105 -341
-293 -319 -258 -347 -283 -316 -283 65 -1 174 -30 254 -70 181 -89 298 -286
311 -526 10 -169 -22 -325 -97 -475 -112 -225 -260 -367 -487 -464 -125 -54
-193 -63 -543 -70 -336 -7 -371 -13 -391 -59 -5 -12 -20 -68 -34 -126 -48
-194 -62 -234 -97 -267 -57 -54 -80 -60 -258 -66 -102 -4 -179 -3 -202 4 -46
12 -78 51 -78 94 0 17 22 146 50 286 27 140 51 271 54 291 2 21 7 41 10 46 2
4 7 26 10 47 3 22 8 51 11 65 3 14 7 40 9 58 2 18 6 35 10 39 10 11 7 21 -10
27 -8 3 -12 2 -9 -4 3 -6 3 -10 -2 -10 -14 0 -70 -54 -72 -70 -1 -8 -3 -26 -4
-41 -2 -14 -6 -29 -9 -35 -7 -11 -20 -71 -18 -80 1 -4 -2 -10 -7 -13 -5 -3
-19 -23 -31 -43 -28 -45 -79 -91 -132 -118 -33 -17 -61 -20 -177 -22 -76 -1
-130 -4 -120 -6 10 -2 17 -8 15 -13 -6 -19 -1621 -1318 -1631 -1312 -7 4 -7 8
2 11 9 3 10 7 3 11 -6 4 -12 23 -14 43 -1 20 -4 36 -7 36 -4 -1 -22 6 -42 15
-19 8 -48 17 -64 19 -28 3 -30 1 -30 -32 0 -19 3 -38 8 -41 5 -4 10 -36 10
-73 1 -36 4 -66 8 -66 3 0 6 -7 6 -16 0 -20 -8 -26 -597 -503 -374 -302 -498
-397 -507 -389 -7 6 -31 11 -54 12 -36 1 -46 -5 -81 -42 -26 -28 -39 -37 -37
-25 1 10 -3 31 -9 46 -7 16 -12 33 -12 39 0 20 -50 97 -70 108 -42 22 -92 9
-142 -38 l-28 -26 0 190 c0 104 -3 199 -6 211 -4 15 0 23 15 28 23 7 170 8
255 1 56 -5 58 -4 52 17 -3 12 -6 29 -6 39 0 12 -14 18 -62 23 -105 12 -121
14 -186 14 l-63 1 3 32 c2 27 8 34 33 39 30 6 232 2 313 -6 38 -4 42 -3 42 18
0 12 -6 33 -13 47 -11 22 -22 26 -102 37 -50 6 -125 12 -168 12 -75 1 -78 2
-88 28 -6 16 -18 36 -27 47 -15 16 -17 46 -14 288 3 195 1 273 -8 283 -6 8
-27 19 -46 25 -34 12 -36 11 -70 -29 -20 -23 -42 -41 -49 -41 -7 0 -73 49
-147 108 -86 71 -145 111 -167 115 -31 6 -33 5 -28 -16 4 -12 9 -40 13 -62 5
-36 13 -45 86 -94 92 -63 222 -182 273 -250 l35 -48 9 -189 c6 -104 12 -233
14 -286 l4 -97 -35 19 c-23 12 -45 17 -61 13 -32 -7 -78 -48 -98 -87 l-15 -30
-25 52 c-25 53 -95 123 -149 149 l-31 15 -7 117 c-15 261 -54 473 -126 691
-85 260 -159 390 -292 515 -72 67 -81 81 -85 118 -5 41 -2 46 63 122 252 296
370 632 337 965 -10 101 -9 106 11 120 91 66 124 119 133 215 7 72 5 73 -66
59 -30 -6 -31 -8 -31 -61 0 -76 -22 -117 -77 -144 -57 -28 -147 -22 -247 15
l-69 26 6 -47 c3 -28 12 -52 22 -60 24 -17 99 -40 157 -48 47 -6 47 -6 55 -53
13 -81 7 -281 -11 -357 -67 -280 -232 -482 -506 -620 -69 -35 -81 -37 -180
-41 -204 -6 -381 -84 -579 -254 -89 -76 -238 -271 -295 -384 -139 -276 -200
-610 -200 -1096 0 -293 10 -444 50 -768 l25 -203 -22 -36 c-31 -50 -102 -93
-155 -93 -48 0 -187 55 -237 93 -63 48 -138 203 -183 377 -21 79 -28 144 -41
395 -22 386 -25 1702 -5 1980 62 874 181 1506 422 2240 38 116 80 255 93 311
65 265 213 414 472 473 258 59 584 116 820 143 122 14 627 17 688 5 34 -7 38
-11 32 -30 -3 -12 -9 -40 -12 -62 -4 -36 -1 -43 30 -74 l36 -34 158 120 c369
280 607 404 1056 553 253 84 358 95 555 61z m-1762 -5368 c14 -9 39 -39 55
-67 l29 -51 0 -385 0 -385 -77 77 -77 77 13 113 c7 62 15 231 18 376 3 144 7
262 10 262 2 0 15 -7 29 -17z m356 -171 c22 -53 23 -70 22 -262 -1 -187 -18
-500 -30 -542 -7 -22 -32 -23 -85 -1 l-42 16 6 389 c7 369 8 391 28 431 34 68
40 72 61 48 9 -12 27 -48 40 -79z m4009 -72 c22 -60 23 -84 27 -340 2 -178 0
-271 -6 -265 -6 6 -40 50 -76 100 l-67 90 5 60 c3 33 8 103 12 155 6 104 30
243 46 273 14 28 31 7 59 -73z m616 0 c12 -25 29 -83 37 -130 16 -96 63 -796
54 -806 -9 -9 -28 4 -127 86 l-89 75 3 295 c4 314 15 411 55 490 12 23 26 40
33 38 7 -2 22 -24 34 -48z m-342 -13 c18 -18 38 -51 43 -73 10 -36 42 -486 42
-581 l0 -43 -79 0 c-44 0 -91 4 -104 9 l-24 9 -6 299 c-7 368 0 413 65 413 21
0 40 -10 63 -33z m651 -149 c70 -76 94 -181 94 -418 1 -102 7 -237 15 -300 7
-63 12 -116 10 -118 -4 -4 -226 46 -232 52 -9 8 -22 255 -22 406 -1 215 19
342 60 394 23 29 38 26 75 -16z m-4663 -146 c14 -34 22 -74 31 -152 2 -14 7
-38 11 -54 5 -17 4 -27 -1 -23 -5 3 -8 -23 -6 -59 2 -35 7 -62 10 -60 4 2 9
-121 11 -275 2 -209 0 -279 -9 -279 -23 0 -101 62 -140 112 l-40 50 0 322 0
321 36 55 c34 52 60 80 75 80 4 0 14 -17 22 -38z m5020 -31 c49 -55 66 -119
77 -301 9 -148 13 -192 26 -314 l5 -54 -76 -7 c-42 -4 -98 -4 -126 0 l-51 7 4
297 c3 255 6 301 21 336 38 86 67 94 120 36z m-4753 -133 c56 -129 67 -212 75
-532 l8 -299 -49 8 c-27 4 -71 14 -99 23 l-50 17 3 325 c3 295 6 331 24 390
24 76 45 120 57 120 5 0 19 -23 31 -52z m352 -173 c68 -123 108 -337 108 -582
l0 -123 -74 0 c-40 0 -101 3 -135 6 l-61 7 0 302 0 302 25 45 c34 61 72 100
93 96 9 -2 29 -26 44 -53z"/>
<path d="M1366 6161 c-67 -14 -88 -129 -28 -152 36 -14 127 -4 182 20 69 30
126 34 213 16 94 -19 117 -14 117 25 0 26 -5 30 -65 50 -128 43 -324 62 -419
41z"/>
<path d="M1556 5730 c-81 -55 -146 -121 -179 -185 -29 -56 -37 -236 -13 -300
22 -57 102 -131 151 -141 193 -36 435 146 435 326 0 61 -18 100 -63 134 -91
70 -217 72 -344 7 -50 -25 -53 -21 -17 26 29 39 85 70 143 79 40 6 41 8 41 45
0 28 -5 41 -19 49 -35 18 -58 11 -135 -40z m202 -189 c29 -25 28 -37 -5 -46
-29 -7 -63 -32 -63 -46 0 -4 10 -9 23 -11 17 -2 23 -11 25 -35 3 -32 2 -33
-37 -33 -28 0 -46 -6 -60 -21 -25 -27 -36 -94 -22 -131 8 -21 7 -27 -5 -32
-53 -20 -115 13 -134 70 -30 90 11 189 104 252 79 52 137 63 174 33z"/>
<path d="M5743 5730 c-49 -15 -80 -60 -97 -142 -9 -40 -83 -397 -165 -793 -83
-396 -161 -774 -176 -839 -29 -134 -24 -174 21 -195 15 -6 77 -11 152 -11 137
0 151 5 185 60 9 14 48 158 87 320 119 491 129 533 152 590 32 82 73 136 125
166 44 27 50 27 187 25 232 -4 297 -29 342 -136 35 -83 24 -176 -65 -569 -44
-198 -81 -371 -81 -385 1 -59 34 -71 201 -71 108 0 136 3 167 19 49 25 76 56
102 114 29 64 180 861 180 948 0 178 -88 279 -270 308 -36 6 -180 15 -320 21
-273 12 -314 18 -372 56 -76 49 -90 113 -63 300 16 115 10 157 -31 195 -23 21
-35 24 -127 26 -56 1 -116 -2 -134 -7z"/>
<path d="M3654 5156 c-41 -18 -72 -59 -79 -105 -15 -96 -35 -202 -185 -969
-88 -453 -160 -830 -160 -838 0 -11 30 -14 163 -14 144 0 166 2 195 20 39 24
42 32 88 213 19 77 41 155 48 172 16 36 65 77 113 93 19 6 165 13 340 17 369
7 427 16 568 84 130 63 210 123 277 208 145 182 210 357 212 573 1 133 -14
192 -76 312 -66 127 -167 200 -324 233 -97 21 -1133 21 -1180 1z m779 -261
c227 -59 339 -243 283 -465 -34 -133 -172 -289 -319 -359 -182 -88 -437 -86
-515 4 -56 63 -54 105 23 481 37 181 48 220 74 258 31 45 78 80 129 97 39 13
256 2 325 -16z"/>
<path d="M7460 5151 c-48 -25 -69 -58 -75 -116 -4 -27 -82 -441 -176 -919 -93
-477 -169 -872 -169 -877 0 -5 76 -9 168 -9 l168 0 33 28 c30 25 36 41 76 192
48 189 63 223 108 251 56 34 95 38 402 44 399 8 458 20 640 124 198 114 357
350 400 596 29 166 14 293 -48 429 -46 99 -111 167 -201 211 -127 63 -150 65
-751 65 -507 0 -542 -1 -575 -19z m785 -256 c127 -33 202 -88 256 -187 33 -61
34 -67 34 -173 0 -124 -12 -162 -83 -257 -129 -174 -308 -268 -517 -270 -211
-2 -299 66 -280 216 12 94 95 500 111 543 18 49 100 129 141 138 15 4 33 9 38
11 22 9 244 -7 300 -21z"/>
<path d="M7938 4813 c6 -2 18 -2 25 0 6 3 1 5 -13 5 -14 0 -19 -2 -12 -5z"/>
<path d="M7920 4760 c-41 -34 -76 -62 -77 -63 0 -1 -4 -15 -6 -32 -3 -16 -8
-39 -10 -50 -22 -93 -35 -152 -35 -165 -1 -8 -10 -55 -21 -105 -11 -49 -20
-116 -21 -147 0 -76 18 -89 140 -96 179 -10 300 36 420 157 96 97 131 162 138
251 6 91 -17 160 -73 215 -61 62 -134 86 -270 92 l-110 4 -75 -61z"/>
<path d="M6468 3653 c7 -3 16 -2 19 1 4 3 -2 6 -13 5 -11 0 -14 -3 -6 -6z"/>
</g>
</svg>
