<?xml version="1.0" standalone="no"?>
<!DOCTYPE svg PUBLIC "-//W3C//DTD SVG 20010904//EN"
 "http://www.w3.org/TR/2001/REC-SVG-20010904/DTD/svg10.dtd">
<svg version="1.0" xmlns="http://www.w3.org/2000/svg"
 width="821.000000pt" height="584.000000pt" viewBox="0 0 821.000000 584.000000"
 preserveAspectRatio="xMidYMid meet">

<g transform="translate(0.000000,584.000000) scale(0.100000,-0.100000)"
fill="#000000" stroke="none">
<path d="M3890 4829 c-360 -39 -675 -167 -960 -388 -94 -72 -274 -252 -317
-315 -15 -23 -30 -43 -33 -46 -25 -25 -89 -127 -163 -260 -40 -74 -114 -268
-141 -374 -45 -174 -59 -309 -53 -521 5 -190 30 -356 70 -470 l14 -40 12 45
c53 204 135 406 211 520 9 14 33 50 53 81 60 95 193 253 280 334 412 384 963
519 1473 360 210 -65 355 -145 544 -298 l84 -68 21 36 c98 177 208 298 323
356 59 30 75 34 147 34 111 0 190 -38 296 -144 l76 -76 -24 65 c-56 149 -182
362 -293 495 -265 316 -593 525 -981 624 -65 17 -155 35 -200 41 -123 15 -342
20 -439 9z"/>
<path d="M4980 3343 c4 -16 18 -55 30 -88 11 -33 27 -85 34 -116 12 -51 12
-62 -9 -126 -44 -139 -154 -328 -274 -473 -35 -41 -147 -161 -251 -265 l-188
-190 -22 -75 c-13 -41 -24 -76 -25 -78 -2 -2 -105 40 -197 82 -72 32 -226 118
-298 166 -85 56 -87 57 -53 14 81 -103 340 -334 469 -418 40 -26 41 -28 47
-97 15 -174 122 -281 342 -341 106 -28 321 -31 407 -5 31 9 62 17 70 17 8 0
20 -24 31 -62 9 -35 32 -114 51 -175 l34 -113 -162 0 -162 0 -39 125 c-22 69
-43 125 -47 125 -4 0 -49 -14 -100 -31 -366 -123 -794 -124 -1173 -3 -60 19
-116 38 -122 40 -8 3 -13 -2 -13 -11 0 -10 -16 -69 -36 -131 l-37 -114 -158 0
c-125 0 -159 3 -159 13 0 8 11 49 24 93 14 43 38 124 55 179 17 55 31 107 31
115 0 8 -24 30 -52 49 l-52 34 -46 -24 c-79 -41 -232 -149 -347 -246 -106 -89
-233 -216 -233 -234 0 -22 326 -254 445 -317 59 -32 128 -62 132 -59 6 7 23
110 18 115 -3 3 -1 10 5 16 5 7 10 47 11 89 l3 77 1105 -2 1105 -3 3 -80 c2
-44 8 -93 14 -109 5 -16 9 -42 9 -57 0 -16 5 -29 11 -29 5 0 7 -4 4 -10 -9
-15 1 -12 45 10 22 11 40 25 40 31 0 6 -4 8 -8 5 -10 -6 -8 62 3 72 4 4 6 -4
5 -18 -2 -14 1 -35 6 -48 9 -22 12 -21 123 48 113 70 325 224 350 254 12 14 7
23 -29 64 -24 26 -57 60 -74 76 -17 16 -51 47 -76 70 -58 55 -211 172 -277
215 -29 18 -53 35 -53 37 0 2 42 25 93 50 112 57 339 206 465 307 128 102 262
226 262 241 0 7 -55 89 -123 182 -201 277 -336 450 -570 734 -78 94 -404 430
-418 430 -4 0 -4 -12 1 -27z m-2027 -2340 c-7 -2 -21 -2 -30 0 -10 3 -4 5 12
5 17 0 24 -2 18 -5z m-83 -80 c-4 -42 -5 -44 -8 -15 -3 30 2 62 10 62 2 0 1
-21 -2 -47z m2407 21 c2 -13 1 -15 -4 -4 -3 8 -11 19 -17 23 -7 6 -6 7 4 4 8
-2 16 -12 17 -23z m10 -166 c-3 -8 -6 -5 -6 6 -1 11 2 17 5 13 3 -3 4 -12 1
-19z m-2422 -18 c3 -5 1 -10 -4 -10 -6 0 -11 5 -11 10 0 6 2 10 4 10 3 0 8 -4
11 -10z"/>
<path d="M4142 3200 c-18 -4 -55 -21 -81 -37 -37 -24 -120 -48 -390 -114 -273
-67 -337 -86 -315 -92 16 -4 168 -41 339 -83 269 -65 316 -79 360 -109 109
-73 226 -67 317 18 76 70 98 210 46 298 -56 95 -170 144 -276 119z m102 -31
c31 -15 56 -65 49 -101 -14 -71 -112 -99 -159 -45 -68 79 15 189 110 146z"/>
<path d="M5644 3110 c-82 -98 -40 -330 59 -330 22 0 87 62 87 83 0 8 16 34 35
58 l34 44 -27 30 c-34 36 -65 102 -56 117 4 6 2 8 -4 4 -6 -3 -17 1 -26 9 -23
24 -77 16 -102 -15z m95 -21 c23 -41 -7 -117 -41 -104 -21 8 -41 65 -32 91 18
51 49 56 73 13z"/>
</g>
</svg>
